<svg id="_0" data-name="0" xmlns="http://www.w3.org/2000/svg" viewBox="0 0 500 500"><defs><style>.cls-1{fill:#0dacff;}.cls-2{fill:#127cb3;}.cls-3{fill:#ff4600;}.cls-4{fill:#12b338;}</style></defs><path d="M407.14,335.71a71.43,71.43,0,1,0,71.43,71.43A71.43,71.43,0,0,0,407.14,335.71Zm0,114.29A42.86,42.86,0,1,1,450,407.14,42.85,42.85,0,0,1,407.14,450Z"/><g id="CIRCLE"><circle cx="250" cy="250" r="28.57"/></g><g id="LWPOLYLINE"><path d="M35.71,7.14a3.57,3.57,0,1,0,0-7.14A35.71,35.71,0,0,0,0,35.71a3.57,3.57,0,1,0,7.14,0A28.57,28.57,0,0,1,35.71,7.14Z"/></g><g id="LWPOLYLINE-2" data-name="LWPOLYLINE"><path class="cls-1" d="M21.43,192.86V307.14a14.29,14.29,0,1,0,28.57,0V264.29h85.71v42.85a14.29,14.29,0,0,0,28.58,0V192.86a14.29,14.29,0,1,0-28.58,0v42.85H50V192.86a14.29,14.29,0,1,0-28.57,0Z"/></g><g id="LWPOLYLINE-3" data-name="LWPOLYLINE"><path class="cls-2" d="M178.57,92.86a71.43,71.43,0,0,0,142.86,0V35.71a14.29,14.29,0,0,0-28.57,0V92.86a42.86,42.86,0,0,1-85.72,0V35.71a14.29,14.29,0,0,0-28.57,0Z"/></g><g id="LWPOLYLINE-4" data-name="LWPOLYLINE"><path class="cls-3" d="M178.57,250a71.43,71.43,0,0,0,142.86,0V192.86a14.29,14.29,0,1,0-28.57,0V250a42.86,42.86,0,0,1-85.72,0V192.86a14.29,14.29,0,1,0-28.57,0Z"/></g><g id="LWPOLYLINE-5" data-name="LWPOLYLINE"><path d="M82.51,105.63a14.27,14.27,0,0,0,20.19.5c.18-.16.34-.33.51-.5l32.5-34.17V150a14.29,14.29,0,0,0,28.58,0V35.71a14.29,14.29,0,0,0-24.64-9.84L92.86,75.06,46.06,25.87a14.28,14.28,0,0,0-24.63,9.84V150A14.29,14.29,0,1,0,50,150V71.46Z"/></g><g id="LWPOLYLINE-6" data-name="LWPOLYLINE"><path class="cls-1" d="M396.79,262.77a14.29,14.29,0,0,0,20.2.51l.5-.51L450,228.6v78.54a14.29,14.29,0,1,0,28.57,0V192.86A14.28,14.28,0,0,0,453.94,183l-46.8,49.19L360.35,183a14.29,14.29,0,0,0-24.64,9.85V307.14a14.29,14.29,0,0,0,28.58,0V228.6Z"/></g><g id="LWPOLYLINE-7" data-name="LWPOLYLINE"><path class="cls-4" d="M421.43,150V101.49l53.21-55.93a14.28,14.28,0,1,0-20.7-19.69l-46.8,49.19L360.35,25.87a14.28,14.28,0,1,0-20.7,19.69l53.21,55.93V150a14.29,14.29,0,1,0,28.57,0Z"/></g><g id="LWPOLYLINE-8" data-name="LWPOLYLINE"><path class="cls-4" d="M162.78,457.9,105.63,343.61a14.28,14.28,0,0,0-25.55,0L22.94,457.9a14.28,14.28,0,0,0,25.55,12.77l44.37-88.73,44.36,88.73a14.29,14.29,0,0,0,25.56-12.77Z"/></g><g id="LWPOLYLINE-9" data-name="LWPOLYLINE"><path class="cls-2" d="M292.86,429.8,203,339.9A14.29,14.29,0,0,0,178.57,350V464.29a14.29,14.29,0,0,0,28.57,0v-79.8l89.9,89.9a14.29,14.29,0,0,0,24.39-10.1V350a14.29,14.29,0,1,0-28.57,0Z"/></g><g id="LWPOLYLINE-10" data-name="LWPOLYLINE"><path d="M407.14,500A92.85,92.85,0,0,0,500,407.14a3.57,3.57,0,0,0-7.14,0,85.72,85.72,0,0,1-85.72,85.72,3.57,3.57,0,0,0,0,7.14Z"/></g></svg>